<mxfile host="app.diagrams.net" modified="2024-06-18T02:07:59.023Z" agent="Mozilla/5.0 (Macintosh; Intel Mac OS X 10_15_7) AppleWebKit/537.36 (KHTML, like Gecko) Chrome/125.0.0.0 Safari/537.36" version="24.3.1" etag="jdNBnvDEQYmMwzeH2k1t" type="github">
  <diagram name="第 1 页" id="ucCvrBrf6Ok6Ebet--K0">
    <mxGraphModel>
      <root>
        <mxCell id="0" />
        <mxCell id="1" parent="0" />
      </root>
    </mxGraphModel>
  </diagram>
</mxfile>
